<mxfile host="app.diagrams.net" agent="Mozilla/5.0 (Windows NT 10.0; Win64; x64) AppleWebKit/537.36 (KHTML, like Gecko) Chrome/129.0.0.0 Safari/537.36" version="24.7.17">
  <diagram id="C5RBs43oDa-KdzZeNtuy" name="Page-1">
    <mxGraphModel dx="2074" dy="1132" grid="1" gridSize="10" guides="1" tooltips="1" connect="1" arrows="1" fold="1" page="1" pageScale="1" pageWidth="827" pageHeight="1169" math="0" shadow="0">
      <root>
        <mxCell id="WIyWlLk6GJQsqaUBKTNV-0" />
        <mxCell id="WIyWlLk6GJQsqaUBKTNV-1" parent="WIyWlLk6GJQsqaUBKTNV-0" />
        <mxCell id="ndq6d4GcXDeYOHeQQ0Ih-6" style="edgeStyle=orthogonalEdgeStyle;rounded=0;orthogonalLoop=1;jettySize=auto;html=1;exitX=1;exitY=0.5;exitDx=0;exitDy=0;entryX=0.5;entryY=0;entryDx=0;entryDy=0;" edge="1" parent="WIyWlLk6GJQsqaUBKTNV-1" source="ndq6d4GcXDeYOHeQQ0Ih-0" target="ndq6d4GcXDeYOHeQQ0Ih-1">
          <mxGeometry relative="1" as="geometry" />
        </mxCell>
        <mxCell id="ndq6d4GcXDeYOHeQQ0Ih-12" style="edgeStyle=orthogonalEdgeStyle;rounded=0;orthogonalLoop=1;jettySize=auto;html=1;exitX=0;exitY=0.75;exitDx=0;exitDy=0;" edge="1" parent="WIyWlLk6GJQsqaUBKTNV-1" source="ndq6d4GcXDeYOHeQQ0Ih-0" target="ndq6d4GcXDeYOHeQQ0Ih-13">
          <mxGeometry relative="1" as="geometry">
            <mxPoint x="130" y="120" as="targetPoint" />
          </mxGeometry>
        </mxCell>
        <mxCell id="ndq6d4GcXDeYOHeQQ0Ih-0" value="&#xa;Õllesort&#xa;&#xa;" style="rounded=0;whiteSpace=wrap;html=1;" vertex="1" parent="WIyWlLk6GJQsqaUBKTNV-1">
          <mxGeometry x="120" width="120" height="60" as="geometry" />
        </mxCell>
        <mxCell id="ndq6d4GcXDeYOHeQQ0Ih-7" style="edgeStyle=orthogonalEdgeStyle;rounded=0;orthogonalLoop=1;jettySize=auto;html=1;entryX=0.5;entryY=0;entryDx=0;entryDy=0;" edge="1" parent="WIyWlLk6GJQsqaUBKTNV-1" source="ndq6d4GcXDeYOHeQQ0Ih-1" target="ndq6d4GcXDeYOHeQQ0Ih-4">
          <mxGeometry relative="1" as="geometry" />
        </mxCell>
        <mxCell id="ndq6d4GcXDeYOHeQQ0Ih-8" style="edgeStyle=orthogonalEdgeStyle;rounded=0;orthogonalLoop=1;jettySize=auto;html=1;entryX=0.5;entryY=0;entryDx=0;entryDy=0;" edge="1" parent="WIyWlLk6GJQsqaUBKTNV-1" source="ndq6d4GcXDeYOHeQQ0Ih-1" target="ndq6d4GcXDeYOHeQQ0Ih-2">
          <mxGeometry relative="1" as="geometry" />
        </mxCell>
        <mxCell id="ndq6d4GcXDeYOHeQQ0Ih-9" style="edgeStyle=orthogonalEdgeStyle;rounded=0;orthogonalLoop=1;jettySize=auto;html=1;entryX=0.5;entryY=0;entryDx=0;entryDy=0;" edge="1" parent="WIyWlLk6GJQsqaUBKTNV-1" source="ndq6d4GcXDeYOHeQQ0Ih-1" target="ndq6d4GcXDeYOHeQQ0Ih-3">
          <mxGeometry relative="1" as="geometry" />
        </mxCell>
        <mxCell id="ndq6d4GcXDeYOHeQQ0Ih-14" style="edgeStyle=orthogonalEdgeStyle;rounded=0;orthogonalLoop=1;jettySize=auto;html=1;exitX=1;exitY=0;exitDx=0;exitDy=0;entryX=-0.02;entryY=0.771;entryDx=0;entryDy=0;entryPerimeter=0;" edge="1" parent="WIyWlLk6GJQsqaUBKTNV-1" source="ndq6d4GcXDeYOHeQQ0Ih-1" target="ndq6d4GcXDeYOHeQQ0Ih-17">
          <mxGeometry relative="1" as="geometry">
            <mxPoint x="770" y="130" as="targetPoint" />
            <Array as="points">
              <mxPoint x="540" y="161" />
            </Array>
          </mxGeometry>
        </mxCell>
        <mxCell id="ndq6d4GcXDeYOHeQQ0Ih-1" value="&#xa; Proovipartii&#xa;&#xa;" style="rounded=0;whiteSpace=wrap;html=1;" vertex="1" parent="WIyWlLk6GJQsqaUBKTNV-1">
          <mxGeometry x="440" y="190" width="100" height="60" as="geometry" />
        </mxCell>
        <mxCell id="ndq6d4GcXDeYOHeQQ0Ih-18" style="edgeStyle=orthogonalEdgeStyle;rounded=0;orthogonalLoop=1;jettySize=auto;html=1;" edge="1" parent="WIyWlLk6GJQsqaUBKTNV-1" source="ndq6d4GcXDeYOHeQQ0Ih-2" target="ndq6d4GcXDeYOHeQQ0Ih-19">
          <mxGeometry relative="1" as="geometry">
            <mxPoint x="1010" y="320" as="targetPoint" />
          </mxGeometry>
        </mxCell>
        <mxCell id="ndq6d4GcXDeYOHeQQ0Ih-2" value="&#xa;Koostisosa &#xa;&#xa;" style="rounded=0;whiteSpace=wrap;html=1;" vertex="1" parent="WIyWlLk6GJQsqaUBKTNV-1">
          <mxGeometry x="610" y="300" width="120" height="60" as="geometry" />
        </mxCell>
        <mxCell id="ndq6d4GcXDeYOHeQQ0Ih-10" style="edgeStyle=orthogonalEdgeStyle;rounded=0;orthogonalLoop=1;jettySize=auto;html=1;entryX=0.5;entryY=0;entryDx=0;entryDy=0;" edge="1" parent="WIyWlLk6GJQsqaUBKTNV-1" source="ndq6d4GcXDeYOHeQQ0Ih-3" target="ndq6d4GcXDeYOHeQQ0Ih-5">
          <mxGeometry relative="1" as="geometry" />
        </mxCell>
        <mxCell id="ndq6d4GcXDeYOHeQQ0Ih-20" style="edgeStyle=orthogonalEdgeStyle;rounded=0;orthogonalLoop=1;jettySize=auto;html=1;" edge="1" parent="WIyWlLk6GJQsqaUBKTNV-1" source="ndq6d4GcXDeYOHeQQ0Ih-3" target="ndq6d4GcXDeYOHeQQ0Ih-21">
          <mxGeometry relative="1" as="geometry">
            <mxPoint x="100" y="470" as="targetPoint" />
          </mxGeometry>
        </mxCell>
        <mxCell id="ndq6d4GcXDeYOHeQQ0Ih-3" value="&#xa;Logikand &#xa;&#xa;" style="rounded=0;whiteSpace=wrap;html=1;" vertex="1" parent="WIyWlLk6GJQsqaUBKTNV-1">
          <mxGeometry x="210" y="310" width="120" height="60" as="geometry" />
        </mxCell>
        <mxCell id="ndq6d4GcXDeYOHeQQ0Ih-11" style="edgeStyle=orthogonalEdgeStyle;rounded=0;orthogonalLoop=1;jettySize=auto;html=1;entryX=0.5;entryY=0;entryDx=0;entryDy=0;" edge="1" parent="WIyWlLk6GJQsqaUBKTNV-1" source="ndq6d4GcXDeYOHeQQ0Ih-4" target="ndq6d4GcXDeYOHeQQ0Ih-5">
          <mxGeometry relative="1" as="geometry" />
        </mxCell>
        <mxCell id="ndq6d4GcXDeYOHeQQ0Ih-22" style="edgeStyle=orthogonalEdgeStyle;rounded=0;orthogonalLoop=1;jettySize=auto;html=1;" edge="1" parent="WIyWlLk6GJQsqaUBKTNV-1" source="ndq6d4GcXDeYOHeQQ0Ih-4" target="ndq6d4GcXDeYOHeQQ0Ih-23">
          <mxGeometry relative="1" as="geometry">
            <mxPoint x="590" y="620" as="targetPoint" />
          </mxGeometry>
        </mxCell>
        <mxCell id="ndq6d4GcXDeYOHeQQ0Ih-4" value="&lt;br&gt;Maitsmiiste&lt;br&gt;Logi" style="rounded=0;whiteSpace=wrap;html=1;" vertex="1" parent="WIyWlLk6GJQsqaUBKTNV-1">
          <mxGeometry x="440" y="300" width="120" height="60" as="geometry" />
        </mxCell>
        <mxCell id="ndq6d4GcXDeYOHeQQ0Ih-24" style="edgeStyle=orthogonalEdgeStyle;rounded=0;orthogonalLoop=1;jettySize=auto;html=1;" edge="1" parent="WIyWlLk6GJQsqaUBKTNV-1" source="ndq6d4GcXDeYOHeQQ0Ih-5" target="ndq6d4GcXDeYOHeQQ0Ih-25">
          <mxGeometry relative="1" as="geometry">
            <mxPoint x="390" y="770" as="targetPoint" />
          </mxGeometry>
        </mxCell>
        <mxCell id="ndq6d4GcXDeYOHeQQ0Ih-5" value="&#xa;Kasutaja &#xa;&#xa;" style="rounded=0;whiteSpace=wrap;html=1;" vertex="1" parent="WIyWlLk6GJQsqaUBKTNV-1">
          <mxGeometry x="330" y="580" width="120" height="60" as="geometry" />
        </mxCell>
        <mxCell id="ndq6d4GcXDeYOHeQQ0Ih-13" value="Omadused:&#xa;ID: int&#xa;Nimi: string&#xa;Kirjeldus: string&#xa;Seosed:&#xa;1 - * (üks õllesort võib omada mitmeid proovipartiisid)" style="shape=card;whiteSpace=wrap;html=1;" vertex="1" parent="WIyWlLk6GJQsqaUBKTNV-1">
          <mxGeometry width="80" height="230" as="geometry" />
        </mxCell>
        <mxCell id="ndq6d4GcXDeYOHeQQ0Ih-17" value="ID: int&#xa;Õllesort: Õllesort (seos)&#xa;Partii kuupäev: date&#xa;Kood: string&#xa;Kirjeldus: string&#xa;Koostisosa" style="shape=note;whiteSpace=wrap;html=1;backgroundOutline=1;darkOpacity=0.05;" vertex="1" parent="WIyWlLk6GJQsqaUBKTNV-1">
          <mxGeometry x="730" y="30" width="100" height="170" as="geometry" />
        </mxCell>
        <mxCell id="ndq6d4GcXDeYOHeQQ0Ih-19" value="ID: int&#xa;Nimetus: string&#xa;Ühik: string&#xa;Ühikuhind: float&#xa;Kogus pruulimisel: float&#xa;Summa: float" style="shape=card;whiteSpace=wrap;html=1;" vertex="1" parent="WIyWlLk6GJQsqaUBKTNV-1">
          <mxGeometry x="970" y="270" width="90" height="170" as="geometry" />
        </mxCell>
        <mxCell id="ndq6d4GcXDeYOHeQQ0Ih-21" value="ID: int&#xa;Partii: Proovipartii (seos)&#xa;Kuupäev: date&#xa;Kirjeldus: string&#xa;Kasutaja: Kasutaja (seos)" style="shape=card;whiteSpace=wrap;html=1;" vertex="1" parent="WIyWlLk6GJQsqaUBKTNV-1">
          <mxGeometry x="60" y="420" width="80" height="200" as="geometry" />
        </mxCell>
        <mxCell id="ndq6d4GcXDeYOHeQQ0Ih-23" value="ID: int&#xa;Partii: Proovipartii (seos)&#xa;Kuupäev: date&#xa;Kasutaja: Kasutaja (seos)&#xa;Hinnd: int&#xa;Selgitus: string" style="shape=card;whiteSpace=wrap;html=1;" vertex="1" parent="WIyWlLk6GJQsqaUBKTNV-1">
          <mxGeometry x="550" y="570" width="80" height="210" as="geometry" />
        </mxCell>
        <mxCell id="ndq6d4GcXDeYOHeQQ0Ih-25" value="ID: int&#xa;Nimi: string&#xa;Kasutajanimi: string&#xa;Parool: string" style="shape=card;whiteSpace=wrap;html=1;" vertex="1" parent="WIyWlLk6GJQsqaUBKTNV-1">
          <mxGeometry x="350" y="720" width="80" height="100" as="geometry" />
        </mxCell>
      </root>
    </mxGraphModel>
  </diagram>
</mxfile>
